<svg width="20" height="20" viewBox="0 0 20 20" xmlns="http://www.w3.org/2000/svg">
  <path d="M7.02056 15.1314C7.02056 15.204 6.9371 15.2621 6.83185 15.2621C6.7121 15.273 6.62863 15.2149 6.62863 15.1314C6.62863 15.0589 6.7121 15.0008 6.81734 15.0008C6.92621 14.9899 7.02056 15.048 7.02056 15.1314ZM5.89194 14.9681C5.86653 15.0407 5.93911 15.1242 6.04798 15.146C6.14234 15.1823 6.25121 15.146 6.27298 15.0734C6.29476 15.0008 6.22581 14.9173 6.11694 14.8847C6.02258 14.8593 5.91734 14.8956 5.89194 14.9681ZM7.49597 14.9065C7.39073 14.9319 7.31814 15.0008 7.32903 15.0843C7.33992 15.1569 7.43427 15.204 7.54315 15.1786C7.64839 15.1532 7.72097 15.0843 7.71008 15.0117C7.69919 14.9427 7.60121 14.8956 7.49597 14.9065ZM9.88387 1C4.8504 1 1 4.82137 1 9.85484C1 13.8794 3.53306 17.3234 7.15121 18.5355C7.61573 18.6189 7.77903 18.3323 7.77903 18.0964C7.77903 17.8714 7.76815 16.6302 7.76815 15.8681C7.76815 15.8681 5.22782 16.4125 4.69435 14.7867C4.69435 14.7867 4.28065 13.7306 3.68548 13.4585C3.68548 13.4585 2.85444 12.8887 3.74355 12.8996C3.74355 12.8996 4.64718 12.9722 5.14435 13.8359C5.93911 15.2367 7.27097 14.8339 7.78992 14.5944C7.87339 14.0137 8.10927 13.6109 8.37056 13.3714C6.34194 13.1464 4.29516 12.8524 4.29516 9.36129C4.29516 8.36331 4.57097 7.8625 5.15161 7.22379C5.05726 6.9879 4.74879 6.01532 5.24597 4.75968C6.00444 4.52379 7.75 5.73952 7.75 5.73952C8.47581 5.53629 9.25605 5.43105 10.029 5.43105C10.802 5.43105 11.5823 5.53629 12.3081 5.73952C12.3081 5.73952 14.0536 4.52016 14.8121 4.75968C15.3093 6.01895 15.0008 6.9879 14.9065 7.22379C15.4871 7.86613 15.8427 8.36693 15.8427 9.36129C15.8427 12.8633 13.7052 13.1427 11.6766 13.3714C12.0105 13.6581 12.2935 14.2024 12.2935 15.0552C12.2935 16.2782 12.2827 17.7915 12.2827 18.0891C12.2827 18.325 12.4496 18.6117 12.9105 18.5282C16.5395 17.3234 19 13.8794 19 9.85484C19 4.82137 14.9173 1 9.88387 1ZM4.52742 13.5165C4.48024 13.5528 4.49113 13.6363 4.55282 13.7052C4.61089 13.7633 4.69435 13.7887 4.74153 13.7415C4.78871 13.7052 4.77782 13.6218 4.71613 13.5528C4.65806 13.4948 4.5746 13.4694 4.52742 13.5165ZM4.13548 13.2226C4.11008 13.2698 4.14637 13.3278 4.21895 13.3641C4.27702 13.4004 4.3496 13.3895 4.375 13.3387C4.4004 13.2915 4.36411 13.2335 4.29153 13.1972C4.21895 13.1754 4.16089 13.1863 4.13548 13.2226ZM5.31129 14.5145C5.25323 14.5617 5.275 14.6706 5.35847 14.7395C5.44194 14.823 5.54718 14.8339 5.59435 14.7758C5.64153 14.7286 5.61976 14.6198 5.54718 14.5508C5.46734 14.4673 5.35847 14.4564 5.31129 14.5145ZM4.89758 13.981C4.83952 14.0173 4.83952 14.1117 4.89758 14.1952C4.95565 14.2786 5.05363 14.3149 5.10081 14.2786C5.15887 14.2315 5.15887 14.1371 5.10081 14.0536C5.05 13.9702 4.95565 13.9339 4.89758 13.981Z" fill="#111111" />
</svg>
