<svg width="100" height="100" viewBox="0 0 100 100" xmlns="http://www.w3.org/2000/svg">
  <path d="M54.2969 81.25V28.125C54.2969 25 54.2969 25 51.1719 25H41.7969C38.3451 25 35.5469 22.2018 35.5469 18.75C35.5469 15.2982 38.3451 12.5 41.7969 12.5H63.6719C65.3978 12.5 66.7969 13.8991 66.7969 15.625V81.25C66.7969 84.7018 63.9987 87.5 60.5469 87.5C57.0951 87.5 54.2969 84.7018 54.2969 81.25Z" fill="#A25AFF" />
  <path d="M73.0469 18.75C73.0469 15.2982 75.8451 12.5 79.2969 12.5C82.7487 12.5 85.5469 15.2982 85.5469 18.75C85.5469 22.2018 82.7487 25 79.2969 25C75.8451 25 73.0469 22.2018 73.0469 18.75Z" fill="#A25AFF" />
  <path d="M15.7975 79.6563L27.8492 67.6045C29.9264 65.5273 29.9158 65.5273 27.8492 63.4607L15.7975 51.409C14.9367 50.5482 14.4531 49.3808 14.4531 48.1635C14.4531 44.0744 19.397 42.0265 22.2885 44.918L40.4853 63.1149C41.8206 64.4502 41.8206 66.6151 40.4853 67.9504L22.2885 86.1473C19.397 89.0387 14.4531 86.9909 14.4531 82.9018C14.4531 81.6845 14.9367 80.517 15.7975 79.6563Z" fill="#30D5C8" />
</svg>
